{
  "accessors": [
    {
      "bufferView": 2,
      "componentType": 5126,
      "count": 690,
      "max": [
        0.9281501770019531,
        2.4128823280334473,
        0.8485909700393677
      ],
      "min": [
        -0.9281501770019531,
        -0.6244104504585266,
        -0.8485903143882751
      ],
      "type": "VEC3"
    },
    {
      "bufferView": 2,
      "byteOffset": 8280,
      "componentType": 5126,
      "count": 690,
      "max": [
        0.999977707862854,
        1.0,
        0.999976634979248
      ],
      "min": [
        -0.999977707862854,
        -1.0,
        -0.999976634979248
      ],
      "type": "VEC3"
    },
    {
      "bufferView": 1,
      "componentType": 5126,
      "count": 690,
      "max": [
        11.697875022888184,
        18.801559448242188
      ],
      "min": [
        -10.704768180847168,
        -17.85382080078125
      ],
      "type": "VEC2"
    },
    {
      "bufferView": 1,
      "byteOffset": 5520,
      "componentType": 5126,
      "count": 690,
      "max": [
        11.697875022888184,
        18.801559448242188
      ],
      "min": [
        -10.704768180847168,
        -17.85382080078125
      ],
      "type": "VEC2"
    },
    {
      "bufferView": 0,
      "componentType": 5125,
      "count": 3840,
      "type": "SCALAR"
    },
    {
      "bufferView": 2,
      "byteOffset": 16560,
      "componentType": 5126,
      "count": 32,
      "max": [
        0.5296990871429443,
        1.58878755569458,
        0.7650095820426941
      ],
      "min": [
        -0.5296990871429443,
        1.387974500656128,
        0.6395993232727051
      ],
      "type": "VEC3"
    },
    {
      "bufferView": 2,
      "byteOffset": 16944,
      "componentType": 5126,
      "count": 32,
      "max": [
        0.36151134967803955,
        -0.017655251547694206,
        0.9322009086608887
      ],
      "min": [
        -0.36151134967803955,
        -0.017656583338975906,
        0.9322004914283752
      ],
      "type": "VEC3"
    },
    {
      "bufferView": 1,
      "byteOffset": 11040,
      "componentType": 5126,
      "count": 32,
      "max": [
        0.7056534886360168,
        0.2504987418651581
      ],
      "min": [
        0.27198725938796997,
        -0.020598197355866432
      ],
      "type": "VEC2"
    },
    {
      "bufferView": 1,
      "byteOffset": 11296,
      "componentType": 5126,
      "count": 32,
      "max": [
        0.7056534886360168,
        0.2504987418651581
      ],
      "min": [
        0.27198725938796997,
        -0.020598197355866432
      ],
      "type": "VEC2"
    },
    {
      "bufferView": 0,
      "byteOffset": 15360,
      "componentType": 5125,
      "count": 48,
      "type": "SCALAR"
    },
    {
      "bufferView": 2,
      "byteOffset": 17328,
      "componentType": 5126,
      "count": 690,
      "max": [
        0.9281563758850098,
        2.412781238555908,
        0.05723971873521805
      ],
      "min": [
        -0.9281563758850098,
        -0.6177504062652588,
        -0.05723913758993149
      ],
      "type": "VEC3"
    },
    {
      "bufferView": 2,
      "byteOffset": 25608,
      "componentType": 5126,
      "count": 690,
      "max": [
        0.9999814033508301,
        1.0,
        1.0
      ],
      "min": [
        -0.9999814033508301,
        -1.0,
        -1.0
      ],
      "type": "VEC3"
    },
    {
      "bufferView": 1,
      "byteOffset": 11552,
      "componentType": 5126,
      "count": 690,
      "max": [
        11.605178833007813,
        18.630033493041992
      ],
      "min": [
        -10.605178833007813,
        -17.62958335876465
      ],
      "type": "VEC2"
    },
    {
      "bufferView": 1,
      "byteOffset": 17072,
      "componentType": 5126,
      "count": 690,
      "max": [
        11.605178833007813,
        18.630033493041992
      ],
      "min": [
        -10.605178833007813,
        -17.62958335876465
      ],
      "type": "VEC2"
    },
    {
      "bufferView": 0,
      "byteOffset": 15552,
      "componentType": 5125,
      "count": 3840,
      "type": "SCALAR"
    },
    {
      "bufferView": 2,
      "byteOffset": 33888,
      "componentType": 5126,
      "count": 16,
      "max": [
        0.7127070426940918,
        1.8123455047607422,
        0.6342841982841492
      ],
      "min": [
        -0.7227071523666382,
        1.1916948556900024,
        0.5020694732666016
      ],
      "type": "VEC3"
    },
    {
      "bufferView": 2,
      "byteOffset": 34080,
      "componentType": 5126,
      "count": 16,
      "max": [
        0.6682093143463135,
        0.04374617338180542,
        0.7538124322891235
      ],
      "min": [
        -0.6682122945785522,
        -0.04375086724758148,
        0.7436933517456055
      ],
      "type": "VEC3"
    },
    {
      "bufferView": 1,
      "byteOffset": 22592,
      "componentType": 5126,
      "count": 16,
      "max": [
        0.6907534599304199,
        0.2539726197719574
      ],
      "min": [
        0.4340805113315582,
        -0.003973335027694702
      ],
      "type": "VEC2"
    },
    {
      "bufferView": 1,
      "byteOffset": 22720,
      "componentType": 5126,
      "count": 16,
      "max": [
        0.6907534599304199,
        0.2539726197719574
      ],
      "min": [
        0.4340805113315582,
        -0.003973335027694702
      ],
      "type": "VEC2"
    },
    {
      "bufferView": 0,
      "byteOffset": 30912,
      "componentType": 5125,
      "count": 24,
      "type": "SCALAR"
    },
    {
      "bufferView": 2,
      "byteOffset": 34272,
      "componentType": 5126,
      "count": 768,
      "max": [
        0.900114893913269,
        2.383470058441162,
        0.029102066531777382
      ],
      "min": [
        -0.9001149535179138,
        -0.6004348397254944,
        -0.0333784744143486
      ],
      "type": "VEC3"
    },
    {
      "bufferView": 2,
      "byteOffset": 43488,
      "componentType": 5126,
      "count": 768,
      "max": [
        0.9996386170387268,
        0.99766606092453,
        0.9983969330787659
      ],
      "min": [
        -0.9996698498725891,
        -0.9975453615188599,
        -0.9983969926834106
      ],
      "type": "VEC3"
    },
    {
      "bufferView": 1,
      "byteOffset": 22848,
      "componentType": 5126,
      "count": 768,
      "max": [
        0.0,
        0.0
      ],
      "min": [
        0.0,
        0.0
      ],
      "type": "VEC2"
    },
    {
      "bufferView": 1,
      "byteOffset": 28992,
      "componentType": 5126,
      "count": 768,
      "max": [
        0.0,
        0.0
      ],
      "min": [
        0.0,
        0.0
      ],
      "type": "VEC2"
    },
    {
      "bufferView": 0,
      "byteOffset": 31008,
      "componentType": 5125,
      "count": 1152,
      "type": "SCALAR"
    }
  ],
  "asset": {
    "extras": {
      "author": "Glitch5970 (https://sketchfab.com/Glitch5970)",
      "license": "CC-BY-4.0 (http://creativecommons.org/licenses/by/4.0/)",
      "source": "https://sketchfab.com/3d-models/lumu-ai-halo-infinite-7a697a45f22948cc928deab5063be8cc",
      "title": "Lumu AI - Halo Infinite"
    },
    "generator": "Sketchfab-12.65.0",
    "version": "2.0"
  },
  "bufferViews": [
    {
      "buffer": 0,
      "byteLength": 35616,
      "name": "floatBufferViews",
      "target": 34963
    },
    {
      "buffer": 0,
      "byteLength": 35136,
      "byteOffset": 35616,
      "byteStride": 8,
      "name": "floatBufferViews",
      "target": 34962
    },
    {
      "buffer": 0,
      "byteLength": 52704,
      "byteOffset": 70752,
      "byteStride": 12,
      "name": "floatBufferViews",
      "target": 34962
    }
  ],
  "buffers": [
    {
      "byteLength": 123456,
      "uri": "scene.bin"
    }
  ],
  "extensionsUsed": [
    "KHR_materials_transmission"
  ],
  "images": [
    {
      "uri": "textures/Glass_baseColor.png"
    },
    {
      "uri": "textures/Other_baseColor.png"
    }
  ],
  "materials": [
    {
      "alphaMode": "BLEND",
      "doubleSided": true,
      "extensions": {
        "KHR_materials_transmission": {
          "transmissionFactor": 0.8890824247952871
        }
      },
      "name": "Glass",
      "pbrMetallicRoughness": {
        "baseColorFactor": [
          1.0,
          1.0,
          1.0,
          0.25
        ],
        "baseColorTexture": {
          "index": 0
        },
        "metallicFactor": 0.5721889848744183,
        "roughnessFactor": 0.22752211355847274
      }
    },
    {
      "doubleSided": true,
      "emissiveFactor": [
        1.0,
        1.0,
        1.0
      ],
      "emissiveTexture": {
        "index": 1
      },
      "name": "Other",
      "pbrMetallicRoughness": {
        "baseColorTexture": {
          "index": 1
        }
      }
    },
    {
      "doubleSided": true,
      "emissiveFactor": [
        0.7450141128342036,
        0.7450141128342036,
        0.7450141128342036
      ],
      "emissiveTexture": {
        "index": 1
      },
      "name": "Inside_LINES",
      "pbrMetallicRoughness": {
        "baseColorFactor": [
          0.24656259213707493,
          0.3356181069541756,
          0.22803185505499582,
          1.0
        ],
        "metallicFactor": 0.7906859684021734,
        "roughnessFactor": 0.8635182962447585
      }
    }
  ],
  "meshes": [
    {
      "name": "Object_0",
      "primitives": [
        {
          "attributes": {
            "NORMAL": 1,
            "POSITION": 0,
            "TEXCOORD_0": 2,
            "TEXCOORD_1": 3
          },
          "indices": 4,
          "material": 0,
          "mode": 4
        }
      ]
    },
    {
      "name": "Object_1",
      "primitives": [
        {
          "attributes": {
            "NORMAL": 6,
            "POSITION": 5,
            "TEXCOORD_0": 7,
            "TEXCOORD_1": 8
          },
          "indices": 9,
          "material": 1,
          "mode": 4
        }
      ]
    },
    {
      "name": "Object_2",
      "primitives": [
        {
          "attributes": {
            "NORMAL": 11,
            "POSITION": 10,
            "TEXCOORD_0": 12,
            "TEXCOORD_1": 13
          },
          "indices": 14,
          "material": 2,
          "mode": 4
        }
      ]
    },
    {
      "name": "Object_3",
      "primitives": [
        {
          "attributes": {
            "NORMAL": 16,
            "POSITION": 15,
            "TEXCOORD_0": 17,
            "TEXCOORD_1": 18
          },
          "indices": 19,
          "material": 1,
          "mode": 4
        }
      ]
    },
    {
      "name": "Object_4",
      "primitives": [
        {
          "attributes": {
            "NORMAL": 21,
            "POSITION": 20,
            "TEXCOORD_0": 22,
            "TEXCOORD_1": 23
          },
          "indices": 24,
          "material": 1,
          "mode": 4
        }
      ]
    }
  ],
  "nodes": [
    {
      "children": [
        1
      ],
      "matrix": [
        0.12591242790222168,
        0.0,
        0.0,
        0.0,
        0.0,
        2.79581753087003e-17,
        -0.12591242790222168,
        0.0,
        0.0,
        0.12591242790222168,
        2.79581753087003e-17,
        0.0,
        0.0,
        0.0,
        0.0,
        1.0
      ],
      "name": "Sketchfab_model"
    },
    {
      "children": [
        2
      ],
      "name": "root"
    },
    {
      "children": [
        3
      ],
      "matrix": [
        1.0,
        0.0,
        0.0,
        0.0,
        0.0,
        2.220446049250313e-16,
        1.0,
        0.0,
        0.0,
        -1.0,
        2.220446049250313e-16,
        0.0,
        0.0,
        0.0,
        0.0,
        1.0
      ],
      "name": "GLTF_SceneRootNode"
    },
    {
      "children": [
        4,
        5,
        7,
        9,
        11
      ],
      "name": "Main_4"
    },
    {
      "mesh": 0,
      "name": "Object_4"
    },
    {
      "children": [
        6
      ],
      "name": "Eyes_0"
    },
    {
      "mesh": 1,
      "name": "Object_6"
    },
    {
      "children": [
        8
      ],
      "name": "Inside_Lines_1"
    },
    {
      "mesh": 2,
      "name": "Object_8"
    },
    {
      "children": [
        10
      ],
      "matrix": [
        1.0,
        0.0,
        0.0,
        0.0,
        0.0,
        1.0,
        0.0,
        0.0,
        0.0,
        0.0,
        1.0,
        0.0,
        0.001707105548121035,
        -0.006437458097934723,
        -0.000566008675377816,
        1.0
      ],
      "name": "Other_2"
    },
    {
      "mesh": 3,
      "name": "Object_10"
    },
    {
      "children": [
        12
      ],
      "name": "Outline_3"
    },
    {
      "mesh": 4,
      "name": "Object_12"
    }
  ],
  "samplers": [
    {
      "magFilter": 9729,
      "minFilter": 9987,
      "wrapS": 10497,
      "wrapT": 10497
    }
  ],
  "scene": 0,
  "scenes": [
    {
      "name": "Sketchfab_Scene",
      "nodes": [
        0
      ]
    }
  ],
  "textures": [
    {
      "sampler": 0,
      "source": 0
    },
    {
      "sampler": 0,
      "source": 1
    }
  ]
}
